<?xml version="1.0" ?><!DOCTYPE svg  PUBLIC '-//W3C//DTD SVG 1.1//EN'  'http://www.w3.org/Graphics/SVG/1.1/DTD/svg11.dtd'><svg enable-background="new 0 0 100 100" height="100px" id="Layer_1" version="1.1" viewBox="0 0 100 100" width="100px" xml:space="preserve" xmlns="http://www.w3.org/2000/svg" xmlns:xlink="http://www.w3.org/1999/xlink"><g><path d="M49.978,3.911C24.625,3.911,4,24.537,4,49.889s20.625,45.978,45.978,45.978s45.978-20.625,45.978-45.978   S75.33,3.911,49.978,3.911z M49.978,93.866C25.728,93.866,6,74.138,6,49.889S25.728,5.911,49.978,5.911   s43.978,19.728,43.978,43.978S74.227,93.866,49.978,93.866z"/><path d="M56.388,51.088c0-3.537-2.877-6.414-6.414-6.414s-6.414,2.877-6.414,6.414s2.877,6.414,6.414,6.414   S56.388,54.625,56.388,51.088z M45.561,51.088c0-2.434,1.98-4.414,4.414-4.414s4.414,1.98,4.414,4.414   c0,2.434-1.98,4.414-4.414,4.414S45.561,53.522,45.561,51.088z"/><path d="M64.676,28.808H35.272c-3.539,0-6.417,2.878-6.417,6.417v6.142c0,0.552,0.448,1,1,1h14.377   c0.179,0,0.355-0.048,0.509-0.139c3.162-1.871,7.303-1.871,10.465,0c0.154,0.091,0.33,0.139,0.509,0.139h14.377   c0.552,0,1-0.448,1-1v-6.142C71.093,31.687,68.215,28.808,64.676,28.808z M69.093,40.366h-13.11c-3.661-2.055-8.357-2.055-12.019,0   h-13.11v-5.142c0-2.435,1.981-4.417,4.417-4.417h29.404c2.436,0,4.417,1.981,4.417,4.417V40.366z"/><path d="M64.676,24.939H35.272c-5.671,0-10.286,4.614-10.286,10.285v29.405c0,5.672,4.614,10.286,10.286,10.286h29.404   c5.671,0,10.286-4.614,10.286-10.286V35.225C74.962,29.553,70.348,24.939,64.676,24.939z M72.962,64.629   c0,4.569-3.717,8.286-8.286,8.286H35.272c-4.569,0-8.286-3.717-8.286-8.286V35.225c0-4.568,3.717-8.285,8.286-8.285h29.404   c4.569,0,8.286,3.717,8.286,8.285V64.629z"/><path d="M70.093,44.235h-10.46c-0.361,0-0.694,0.195-0.872,0.509c-0.177,0.315-0.171,0.701,0.017,1.01   c0.974,1.604,1.488,3.449,1.488,5.334c0,5.674-4.617,10.291-10.292,10.291s-10.292-4.617-10.292-10.291   c0-1.885,0.515-3.73,1.488-5.334c0.188-0.309,0.194-0.695,0.017-1.01c-0.177-0.314-0.51-0.509-0.872-0.509h-10.46   c-0.552,0-1,0.448-1,1v19.394c0,3.538,2.878,6.417,6.417,6.417h29.404c3.539,0,6.417-2.878,6.417-6.417V45.235   C71.093,44.683,70.646,44.235,70.093,44.235z M69.093,64.629c0,2.435-1.981,4.417-4.417,4.417H35.272   c-2.436,0-4.417-1.981-4.417-4.417V46.235h7.823c-0.655,1.525-0.996,3.176-0.996,4.853c0,6.777,5.514,12.291,12.292,12.291   s12.292-5.514,12.292-12.291c0-1.677-0.341-3.328-0.996-4.853h7.823V64.629z"/><path d="M65.063,31.516h-2.029c-1.832,0-3.322,1.49-3.322,3.321v2.029c0,1.832,1.49,3.321,3.322,3.321h2.029   c1.832,0,3.322-1.49,3.322-3.321v-2.029C68.385,33.006,66.895,31.516,65.063,31.516z M66.385,36.867   c0,0.729-0.593,1.321-1.322,1.321h-2.029c-0.729,0-1.322-0.593-1.322-1.321v-2.029c0-0.729,0.593-1.321,1.322-1.321h2.029   c0.729,0,1.322,0.593,1.322,1.321V36.867z"/></g></svg>